<svg width="180" height="26" viewBox="0 0 180 26" fill="none" xmlns="http://www.w3.org/2000/svg">
<path d="M89.337 3.19892V24.1598L87.0318 26V8.56308H82.6924L89.337 3.19892ZM169.29 0C171.221 0 173.013 0.288467 174.668 0.865401C176.26 1.41028 177.633 2.0231 178.787 2.70316L178.989 2.82405L176.599 7.33326C176.381 7.15663 176.073 6.95421 175.675 6.72672L175.449 6.5999L175.205 6.46821L174.944 6.33129C174.209 5.93657 173.335 5.60246 172.324 5.32932C171.311 5.02528 170.257 4.87171 169.199 4.87363C166.318 4.87363 164.878 5.67841 164.878 7.28797C164.878 8.22897 165.399 8.89718 166.441 9.29191L166.678 9.37727L166.93 9.46402L167.198 9.55216L167.48 9.64135L167.778 9.73228L168.09 9.8246C168.143 9.84028 168.197 9.85595 168.251 9.87128L168.587 9.96535L168.936 10.0615L169.301 10.1584L169.681 10.257L170.076 10.3569L170.697 10.5095L171.129 10.613C172.937 11.0684 174.5 11.5847 175.817 12.1616C177.109 12.7145 178.106 13.4486 178.807 14.3641L178.897 14.4847C179.632 15.426 180 16.6708 180 18.2194C180 20.1021 179.51 21.6204 178.529 22.7746C177.579 23.8978 176.323 24.7179 174.76 25.2342C173.197 25.7199 171.512 25.9627 169.704 25.9627C167.62 25.9627 165.552 25.6743 163.499 25.0973C161.544 24.5479 159.797 23.8058 158.259 22.8708L158.029 22.729L160.511 17.9463C160.91 18.341 161.569 18.7814 162.488 19.267C163.438 19.753 164.541 20.1631 165.797 20.4968C167.054 20.8313 168.386 20.9982 169.796 20.9982C172.615 20.9982 174.025 20.254 174.025 18.766C174.025 17.7641 173.366 17.0506 172.048 16.6255L171.732 16.5151L171.399 16.4032L171.05 16.2897L170.686 16.174L170.305 16.0569L169.909 15.9378L169.705 15.8779L169.285 15.7563L168.849 15.633L168.397 15.5079L167.929 15.3811L167.198 15.1877L166.946 15.1222C164.311 14.4544 162.35 13.6039 161.063 12.5717C159.807 11.5087 159.179 9.99008 159.179 8.01645C159.179 6.25534 159.623 4.7827 160.511 3.59852C161.431 2.41399 162.656 1.51828 164.188 0.91104C165.751 0.303796 167.452 0 169.29 0ZM126.665 0.0452907C128.61 0.0452907 130.385 0.396468 131.99 1.09847L132.182 1.18418C133.836 1.91301 135.246 2.9 136.41 4.1448C137.605 5.35963 138.524 6.74135 139.167 8.28994C139.81 9.83854 140.133 11.4174 140.133 13.027C140.133 14.6972 139.796 16.3064 139.122 17.8553C138.448 19.3736 137.497 20.74 136.271 21.9545C135.076 23.139 133.652 24.08 131.998 24.7785C130.343 25.4771 128.535 25.8262 126.574 25.8262C124.552 25.8262 122.713 25.4771 121.058 24.7785C119.404 24.0497 117.978 23.0784 116.783 21.8636C115.588 20.6184 114.668 19.2217 114.025 17.6731C113.382 16.1242 113.06 14.53 113.06 12.8904C113.06 11.2203 113.397 9.61069 114.071 8.06209C114.708 6.59393 115.619 5.25823 116.756 4.12529L116.922 3.96259C118.147 2.7481 119.586 1.79142 121.241 1.09325C122.896 0.394726 124.704 0.0456391 126.665 0.0456391V0.0452907ZM15.7655 0.182556L26.9346 25.6443H21.0516L18.4774 19.6771H8.50324L5.92945 25.6439H0L11.2148 0.182208H15.7655V0.182556ZM48.6647 0.182556L55.7437 9.20098L62.8218 0.182208H68.843L58.6849 13.0726L68.5213 25.6439H62.5001L55.743 16.9899L49.0328 25.6439H42.9195L52.8019 13.0726L42.5978 0.182208H48.665L48.6647 0.182556ZM93.5529 0.0654973V17.1035H98.0139L91.2516 22.6025V1.65276L93.5522 0.0654973H93.5529ZM126.574 4.96491C124.889 4.96491 123.448 5.35963 122.253 6.14908C121.088 6.93854 120.2 7.94051 119.587 9.15534C118.974 10.3698 118.668 11.6303 118.668 12.9361C118.668 14.3025 118.991 15.6082 119.634 16.853C120.277 18.0679 121.18 19.0548 122.345 19.8136C123.54 20.5731 124.965 20.9525 126.619 20.9525C128.305 20.9525 129.73 20.5578 130.894 19.768C132.06 18.9482 132.947 17.9309 133.56 16.7161C134.173 15.4713 134.48 14.1962 134.48 12.8904C134.48 11.524 134.158 10.2333 133.515 9.01877C132.872 7.80394 131.952 6.83228 130.756 6.10345C129.592 5.3443 128.198 4.96491 126.574 4.96491ZM13.5134 6.87722L9.74426 14.8947H17.1446L13.513 6.87826L13.5134 6.87722Z" fill="white"/>
</svg>
