<svg width="44" height="43" viewBox="0 0 44 43" fill="none" xmlns="http://www.w3.org/2000/svg">
<path d="M6.49524 41.0376C5.45251 40.8335 4.46057 40.4248 3.57678 39.835C2.69299 39.2452 1.93487 38.4861 1.34627 37.6016C0.75767 36.717 0.350259 35.7245 0.147595 34.6815C-0.0550691 33.6385 -0.0489662 32.5657 0.165551 31.5251C0.695239 29.2922 0.585864 29.4219 12.1109 17.3672L22.9702 6.00786L26.0499 8.94224L13.5343 22.0094L24.0031 21.7844L31.3999 14.0688L34.4671 17.0188L23.6031 28.3485C13.6265 38.7407 12.6374 39.7219 11.6234 40.2235C10.0534 41.0478 8.25677 41.3359 6.50774 41.0438L6.49524 41.0376ZM37.0827 14.9954C36.7968 14.8235 33.8577 12.0829 30.5546 8.90162L24.5406 3.12036L24.5218 2.24224C24.4871 1.99257 24.5052 1.73841 24.5749 1.49618C24.6446 1.25394 24.7644 1.02904 24.9265 0.83599C25.1707 0.507146 25.507 0.25813 25.8927 0.120454C26.2785 -0.0172229 26.6964 -0.0373732 27.0937 0.0625527C31.7195 3.97063 36.0933 8.16756 40.189 12.6282C40.3064 13.0347 40.298 13.4673 40.1648 13.869C40.0316 14.2706 39.7799 14.6225 39.4429 14.8784C39.1058 15.1343 38.6992 15.2821 38.2766 15.3024C37.8539 15.3227 37.435 15.2146 37.0749 14.9922L37.0827 14.9954Z" fill="#58D09E"/>
<path d="M3.26555 32.497C2.71399 36.0595 4.76555 38.4782 8.6468 37.9517C9.04524 37.5329 13.6687 32.7064 24.0562 21.8111C18.8312 21.9236 18.8999 21.6954 13.6655 21.8111C3.21242 32.647 3.00461 32.5689 3.26555 32.497Z" fill="#58D09E"/>
<path d="M27.5093 11.1736C30.6108 11.0602 33.6763 11.8693 36.3179 13.4985C38.9595 15.1277 41.0586 17.5038 42.3495 20.3261C43.6405 23.1485 44.0654 26.2903 43.5704 29.3542C43.0755 32.4181 41.6829 35.2663 39.5689 37.5386C37.4549 39.8109 34.7145 41.4052 31.6943 42.1197C28.674 42.8343 25.5097 42.637 22.6016 41.5529C19.6936 40.4687 17.1724 38.5464 15.357 36.0291C13.5416 33.5118 12.5136 30.5127 12.403 27.4111C12.2582 23.256 13.7673 19.2131 16.5992 16.1692C19.4311 13.1252 23.3546 11.3287 27.5093 11.1736Z" fill="#FAFAFA"/>
<path d="M36.4874 21.8767L33.5343 29.2876L30.5655 21.8767H28.1343L32.303 31.9923L29.3343 39.1267L31.4609 39.5454L38.7874 21.8751H36.4874V21.8767Z" fill="black"/>
<path d="M23.5093 23.7517C24.0941 23.7414 24.6686 23.9064 25.1587 24.2256C25.6488 24.5447 26.0322 25.0033 26.2593 25.5423L26.2999 25.6314L28.3734 24.9329L28.3281 24.8283C27.9341 23.8795 27.2628 23.0718 26.4022 22.5109C25.5416 21.95 24.5317 21.662 23.5046 21.6845C22.8046 21.6622 22.1074 21.7822 21.455 22.037C20.8027 22.2919 20.2088 22.6764 19.7093 23.1673C19.2223 23.652 18.8359 24.228 18.5722 24.8625C18.3085 25.4969 18.1728 26.1772 18.1728 26.8642C18.1728 27.5512 18.3085 28.2315 18.5722 28.8659C18.8359 29.5004 19.2223 30.0764 19.7093 30.5611C20.209 31.0517 20.8029 31.436 21.4552 31.6908C22.1075 31.9457 22.8047 32.0658 23.5046 32.0439C24.5314 32.0663 25.5411 31.7784 26.4017 31.2178C27.2623 30.6572 27.9336 29.85 28.3281 28.9017L28.3734 28.7954L26.2968 28.0954L26.2577 28.1892C26.036 28.7323 25.6534 29.1946 25.1612 29.5138C24.669 29.8331 24.091 29.9941 23.5046 29.9751C23.1029 29.9846 22.7036 29.9109 22.3317 29.7587C21.9599 29.6065 21.6235 29.3791 21.3437 29.0908C21.0564 28.7985 20.8308 28.4515 20.6802 28.0703C20.5296 27.6892 20.4572 27.2817 20.4671 26.872C20.4576 26.4596 20.5301 26.0493 20.6806 25.6652C20.8311 25.2811 21.0565 24.9307 21.3437 24.6345C21.6227 24.3448 21.9588 24.1161 22.3308 23.9631C22.7028 23.8101 23.1025 23.7359 23.5046 23.7454L23.5093 23.7517Z" fill="black"/>
<path d="M13.3999 30.8469C13.0394 29.5421 12.8571 28.1944 12.8577 26.8407C12.879 23.779 13.8228 20.7949 15.5661 18.2779C17.3093 15.7608 19.771 13.8279 22.6296 12.7313L23.3968 14.6985C20.9365 15.642 18.8178 17.3054 17.3174 19.4715C15.8169 21.6376 15.0044 24.2057 14.9859 26.8407C14.9865 28.0055 15.1441 29.1649 15.4546 30.2876L13.4046 30.8469H13.3999Z" fill="#58D09E"/>
<path d="M22.5281 12.7797C26.0452 11.4164 29.9415 11.3983 33.4712 12.7288C37.0008 14.0593 39.9157 16.6449 41.6577 19.9907L39.764 20.9532C38.2633 18.0753 35.755 15.8511 32.7181 14.7057C29.6813 13.5603 26.3289 13.5738 23.3015 14.7438L22.5281 12.7797Z" fill="#58D09E"/>
<path d="M35.0843 37.8329C37.855 36.0897 39.8673 33.3668 40.7203 30.2064C41.5734 27.0461 41.2046 23.6804 39.6874 20.7798L41.5734 19.8048C43.337 23.1736 43.7665 27.0834 42.7761 30.7547C41.7857 34.4261 39.4483 37.5894 36.2296 39.6142L35.0843 37.8329Z" fill="url(#paint0_linear_23_4)"/>
<path d="M29.7609 38.0532L29.2437 39.3032C29.194 39.4239 29.1108 39.528 29.004 39.603C28.8971 39.678 28.771 39.7209 28.6406 39.7266C28.4641 39.7342 28.2875 39.7378 28.1109 39.7375C25.1446 39.7331 22.2661 38.7304 19.9391 36.8908C17.612 35.0513 15.9719 32.4821 15.2827 29.5969L13.2062 30.0657C13.9748 33.3902 15.8427 36.3581 18.5077 38.4891C21.2297 40.6595 24.6061 41.8446 28.0874 41.8516H28.1187C28.3218 41.8516 28.5249 41.8516 28.7281 41.8391C29.2637 41.8166 29.7818 41.6419 30.2218 41.3356C30.6618 41.0293 31.0054 40.6039 31.2124 40.1094L31.8906 38.4844L29.7609 38.0532Z" fill="url(#paint1_linear_23_4)"/>
<defs>
<linearGradient id="paint0_linear_23_4" x1="41.3913" y1="21.066" x2="36.8582" y2="39.9841" gradientUnits="userSpaceOnUse">
<stop stop-color="#58D09E"/>
<stop offset="1" stop-color="#D2D2D2" stop-opacity="0"/>
</linearGradient>
<linearGradient id="paint1_linear_23_4" x1="15.7487" y1="34.0958" x2="31.1658" y2="43.2975" gradientUnits="userSpaceOnUse">
<stop stop-color="#58D09E"/>
<stop offset="1"/>
</linearGradient>
</defs>
</svg>
