<svg width="172" height="50" viewBox="0 0 172 50" fill="none" xmlns="http://www.w3.org/2000/svg">
<path d="M1.11812 38.8017V19.6805H24.9919V18.5621H1.11812V1.11812H26.5013V0H0V39.9198H26.7248V38.8017H1.11846H1.11812ZM48.2507 11.1819L38.3547 24.2091L28.6819 11.1822H27.2282L37.6836 25.048L26.2215 39.9195H27.5634L38.354 25.8859L49.2007 39.9195H50.5983L39.0809 25.0473L49.5919 11.1815H48.2503L48.2507 11.1819ZM53.9534 49.7601V31.8691H54.0651C54.7362 34.4782 56.0594 36.5748 58.0349 38.1591C60.0104 39.743 62.5262 40.5352 65.5826 40.5352C67.5581 40.5352 69.3101 40.1346 70.8383 39.3332C72.3664 38.5319 73.643 37.4416 74.6681 36.0624C75.693 34.6832 76.4758 33.0805 77.0164 31.254C77.5567 29.4279 77.8272 27.5081 77.8272 25.4956C77.8272 23.3336 77.5473 21.3393 76.9883 19.5131C76.4292 17.6866 75.6185 16.1024 74.5564 14.7607C73.494 13.4188 72.2081 12.3748 70.6983 11.6299C69.1889 10.8842 67.4836 10.5114 65.5826 10.5114C64.1289 10.5114 62.7779 10.7258 61.5292 11.1544C60.2805 11.5832 59.1718 12.1886 58.2027 12.9715C57.2279 13.7604 56.3794 14.6936 55.6866 15.7389C54.9785 16.8013 54.4379 17.9661 54.0651 19.2336H53.9534V11.1819H52.8352V49.7601H53.9534ZM65.5826 39.4725C62.0792 39.4725 59.2648 38.2705 57.1403 35.8664C55.0158 33.4624 53.9534 30.005 53.9534 25.495C53.9534 23.6312 54.2144 21.8607 54.7362 20.1836C55.2581 18.5064 56.0128 17.0339 57.0003 15.7668C57.9883 14.4993 59.2091 13.493 60.6624 12.7477C62.1161 12.002 63.7564 11.6292 65.5826 11.6292C67.4463 11.6292 69.0772 12.002 70.4748 12.7477C71.8725 13.493 73.0282 14.5087 73.9413 15.7946C74.8544 17.0805 75.544 18.553 76.0101 20.2114C76.4758 21.8701 76.7087 23.6312 76.7087 25.495C76.7087 27.1725 76.4946 28.8406 76.0658 30.499C75.6373 32.1577 74.9755 33.6487 74.0809 34.9721C73.1866 36.295 72.0406 37.3758 70.6426 38.2148C69.2446 39.0534 67.5581 39.4725 65.5826 39.4725ZM83.9772 39.9198V23.65C83.9772 22.0846 84.2007 20.556 84.6483 19.0654C85.0953 17.5745 85.7849 16.2604 86.7168 15.1238C87.6487 13.9869 88.8319 13.0923 90.2671 12.4399C91.702 11.7876 93.4074 11.5174 95.3829 11.6292V10.5111C93.6681 10.4742 92.1681 10.6601 90.8822 11.0701C89.596 11.4802 88.4873 12.0393 87.5554 12.7477C86.6235 13.4557 85.8782 14.2849 85.3191 15.2356C84.7605 16.1847 84.3459 17.2116 84.0889 18.2826H83.9772V11.1819H82.8591V39.9201H83.9772V39.9198ZM96.7805 25.7745H120.822C120.897 23.799 120.701 21.8983 120.235 20.0718C119.769 18.2453 119.023 16.6238 117.999 15.2077C116.973 13.7913 115.65 12.6544 114.029 11.797C112.407 10.9396 110.479 10.5111 108.242 10.5111C106.639 10.5111 105.074 10.8466 103.546 11.5178C102.017 12.1886 100.676 13.1668 99.5201 14.4527C98.3648 15.7386 97.4329 17.3134 96.7248 19.1775C96.0168 21.0409 95.6624 23.1654 95.6624 25.551C95.6624 27.6755 95.9047 29.6604 96.3893 31.5054C96.8738 33.3503 97.6191 34.9534 98.6255 36.3138C99.6322 37.6742 100.928 38.7272 102.511 39.4725C104.095 40.2181 106.006 40.5721 108.242 40.5349C111.522 40.5349 114.281 39.6121 116.517 37.7674C118.753 35.9221 120.077 33.3225 120.487 29.9678H119.368C118.884 33.1362 117.644 35.5124 115.65 37.0963C113.656 38.6805 111.15 39.4725 108.13 39.4725C106.08 39.4725 104.347 39.1185 102.931 38.4104C101.514 37.7024 100.359 36.7329 99.4641 35.503C98.5698 34.2728 97.9081 32.8285 97.4795 31.1698C97.0507 29.5114 96.8178 27.7128 96.7805 25.7745ZM119.704 24.6564H96.7809C96.8923 22.6436 97.2651 20.8359 97.8987 19.2332C98.5326 17.6302 99.3618 16.2604 100.387 15.1238C101.412 13.9869 102.605 13.1205 103.965 12.5238C105.326 11.9275 106.789 11.6292 108.354 11.6292C110.218 11.6292 111.857 11.9742 113.274 12.6638C114.69 13.3534 115.874 14.2946 116.825 15.4872C117.775 16.6799 118.492 18.0685 118.977 19.6523C119.461 21.2366 119.704 22.9047 119.704 24.6564ZM144.025 19.6805H145.143C145.143 16.4748 144.211 14.1453 142.348 12.6916C140.484 11.2379 137.949 10.5111 134.744 10.5111C132.954 10.5111 131.445 10.7349 130.215 11.1822C128.985 11.6292 127.979 12.207 127.196 12.9151C126.413 13.6232 125.854 14.406 125.518 15.2634C125.183 16.1208 125.015 16.9409 125.015 17.7235C125.015 19.2889 125.295 20.5376 125.854 21.4695C126.413 22.4013 127.289 23.1282 128.482 23.65C129.302 24.0225 130.233 24.3581 131.277 24.6567C132.321 24.9547 133.532 25.2715 134.911 25.6067C136.141 25.9054 137.353 26.2034 138.546 26.5013C139.738 26.7997 140.791 27.2003 141.704 27.7034C142.618 28.2067 143.363 28.8497 143.941 29.6326C144.518 30.4151 144.807 31.4403 144.807 32.7074C144.807 33.9376 144.519 34.9812 143.941 35.8383C143.368 36.6912 142.614 37.4072 141.733 37.9352C140.838 38.4755 139.841 38.8668 138.741 39.1091C137.642 39.3513 136.57 39.4725 135.527 39.4725C132.135 39.4725 129.535 38.7178 127.727 37.2084C125.919 35.6987 125.015 33.3225 125.015 30.0795H123.897C123.897 33.6953 124.876 36.3416 126.832 38.0191C128.789 39.6963 131.687 40.5349 135.527 40.5349C136.756 40.5349 137.996 40.395 139.245 40.1154C140.493 39.8359 141.611 39.3795 142.599 38.7456C143.578 38.1207 144.401 37.2792 145.003 36.2859C145.618 35.2792 145.926 34.0493 145.926 32.5956C145.926 31.2164 145.655 30.0983 145.115 29.2409C144.574 28.3839 143.866 27.6755 142.99 27.1164C142.114 26.5574 141.127 26.1195 140.027 25.8027C138.921 25.484 137.812 25.1764 136.7 24.8799C135.332 24.5208 133.962 24.1668 132.591 23.8178C131.417 23.5195 130.327 23.1654 129.32 22.7554C128.351 22.3453 127.578 21.7584 127 20.9943C126.422 20.2302 126.134 19.1399 126.134 17.7235C126.134 17.4628 126.208 16.9966 126.357 16.3258C126.506 15.6547 126.86 14.9745 127.419 14.2849C127.979 13.5956 128.836 12.9805 129.991 12.4399C131.147 11.8997 132.731 11.6292 134.744 11.6292C136.123 11.6292 137.381 11.7785 138.517 12.0765C139.654 12.3748 140.633 12.85 141.453 13.5023C142.273 14.1547 142.906 14.9839 143.354 15.9903C143.801 16.997 144.025 18.2268 144.025 19.6805ZM169.911 19.6805H171.029C171.029 16.4748 170.098 14.1453 168.234 12.6916C166.37 11.2379 163.836 10.5111 160.63 10.5111C158.841 10.5111 157.331 10.7349 156.101 11.1822C154.871 11.6292 153.865 12.207 153.082 12.9151C152.299 13.6232 151.74 14.406 151.405 15.2634C151.069 16.1208 150.902 16.9409 150.902 17.7235C150.902 19.2889 151.181 20.5376 151.741 21.4695C152.299 22.4013 153.176 23.1282 154.368 23.65C155.188 24.0225 156.12 24.3581 157.163 24.6567C158.207 24.9547 159.418 25.2715 160.798 25.6067C162.028 25.9054 163.239 26.2034 164.432 26.5013C165.625 26.7997 166.678 27.2003 167.591 27.7034C168.504 28.2067 169.25 28.8497 169.827 29.6326C170.405 30.4151 170.694 31.4403 170.694 32.7074C170.694 33.9376 170.405 34.9812 169.827 35.8383C169.254 36.6911 168.5 37.4071 167.619 37.9352C166.724 38.4755 165.727 38.8668 164.628 39.1091C163.528 39.3513 162.456 39.4725 161.413 39.4725C158.021 39.4725 155.421 38.7178 153.613 37.2084C151.805 35.6987 150.902 33.3225 150.902 30.0795H149.784C149.784 33.6953 150.762 36.3416 152.719 38.0191C154.676 39.6963 157.574 40.5349 161.413 40.5349C162.643 40.5349 163.882 40.395 165.131 40.1154C166.379 39.8359 167.498 39.3795 168.486 38.7456C169.465 38.1207 170.287 37.2792 170.89 36.2859C171.505 35.2792 171.812 34.0493 171.812 32.5956C171.812 31.2164 171.542 30.0983 171.001 29.2409C170.461 28.3839 169.753 27.6755 168.877 27.1164C168.001 26.5574 167.013 26.1195 165.914 25.8027C164.808 25.484 163.699 25.1764 162.587 24.8799C161.218 24.5208 159.849 24.1668 158.478 23.8178C157.303 23.5195 156.213 23.1654 155.207 22.7554C154.238 22.3453 153.464 21.7584 152.887 20.9943C152.309 20.2302 152.02 19.1399 152.02 17.7235C152.02 17.4628 152.094 16.9966 152.244 16.3258C152.393 15.6547 152.747 14.9745 153.306 14.2849C153.865 13.5956 154.722 12.9805 155.878 12.4399C157.033 11.8997 158.617 11.6292 160.63 11.6292C162.009 11.6292 163.267 11.7785 164.404 12.0765C165.541 12.3748 166.519 12.85 167.339 13.5023C168.159 14.1547 168.793 14.9839 169.24 15.9903C169.688 16.997 169.911 18.2268 169.911 19.6805H169.911Z" fill="#222222"/>
</svg>
