<svg width="36" height="50" viewBox="0 0 36 50" fill="none" xmlns="http://www.w3.org/2000/svg">
<path d="M17.7084 49.8737L3.27876 45.8679L0.0631104 9.80139H35.3969L32.1779 45.8623L17.7084 49.8737Z" fill="#264DE4"/>
<path d="M29.4221 43.566L32.1728 12.7502H17.73V46.8074L29.4221 43.566Z" fill="#2965F1"/>
<path d="M7.43486 26.1269L7.83126 30.5503H17.73V26.1269H7.43486ZM6.63818 17.1738L7.04026 21.5972H17.73V17.1738H6.63818ZM17.73 37.615L17.7106 37.6201L12.7843 36.2899L12.4693 32.7621H8.0289L8.64857 39.7075L17.7097 42.2227L17.73 42.2172V37.615Z" fill="#EBEBEB"/>
<path d="M8.37875 0H13.7361V2.24044H10.6192V4.48089H13.7364V6.72119H8.37875V0ZM14.8077 0H20.1652V1.9482H17.0481V2.33781H20.1652V6.8187H14.8078V4.77285H17.9249V4.38324H14.8076L14.8077 0ZM21.2368 0H26.5943V1.9482H23.4772V2.33781H26.5943V6.8187H21.2368V4.77285H24.3538V4.38324H21.2369L21.2368 0Z" fill="black"/>
<path d="M27.9969 26.1269L28.7954 17.1738H17.7148V21.5972H23.9477L23.5452 26.1269H17.7148V30.5503H23.1617L22.6481 36.2871L17.7146 37.6187V42.2206L26.7829 39.7075L26.8494 38.9601L27.889 27.3147L27.9969 26.1269Z" fill="white"/>
</svg>
