<svg width="144" height="40" viewBox="0 0 144 40" fill="none" xmlns="http://www.w3.org/2000/svg">
<path d="M32.7639 0C34.7453 0 36.3572 1.56501 36.4033 3.51384L36.4044 3.60006V36.3999C36.4044 38.3593 34.8213 39.9533 32.8511 39.9989L32.7639 40H3.6405C1.65938 40 0.04725 38.4344 0.001125 36.4862L0 36.3999V3.60006C0 1.64038 1.58344 0.0467251 3.55331 0.0011125L3.6405 0H32.7639ZM32.7639 2H3.6405C3.22224 2.00054 2.8204 2.161 2.51903 2.44782C2.21767 2.73463 2.04015 3.12558 2.02359 3.53887L2.02247 3.60006V36.3999C2.02301 36.8136 2.18528 37.2109 2.47532 37.509C2.76535 37.807 3.16069 37.9825 3.57862 37.9989L3.6405 38H32.7639C33.1822 37.9995 33.584 37.8391 33.8854 37.5524C34.1868 37.2656 34.3643 36.8747 34.3808 36.4614L34.382 36.4002V3.59978C34.3814 3.17557 34.2108 2.76889 33.9075 2.46894C33.6042 2.16898 33.1929 2.00024 32.7639 1.99972V2ZM9.10125 26L13.6519 30L9.10125 34V26ZM13.1462 6V17.3556C15.1656 16.7056 17.9885 16 20.7304 16C23.2307 16 24.7272 16.972 25.5426 17.7875C27.2557 19.5016 27.3049 21.6779 27.3032 21.9872L27.3029 22L27.3035 34H23.2585V22.0553C23.2388 21.1217 22.7838 20.0003 20.7301 20.0003C16.6587 20.0003 12.0966 22.005 11.961 22.0651L11.9582 22.0662L9.10125 23.3464V6H13.1462ZM27.3035 6C27.0304 8.27201 26.0989 10.45 24.2696 12.4998H20.2247C21.8143 10.4375 22.8125 8.267 23.2585 6H27.3035ZM102.683 12.744C106.272 12.744 110.002 14.9979 110.002 20.3999C110.002 25.8031 106.272 28.0562 102.683 28.0562C99.0737 28.0562 95.3443 25.8031 95.3443 20.3999C95.3443 14.9979 99.0737 12.744 102.683 12.744ZM135.512 13.0235V21.8365C135.512 23.869 136.177 24.7865 137.791 24.7865C139.403 24.7865 140.048 23.869 140.048 21.8365V13.0235H144V21.8559C144 25.7644 142.105 27.9967 137.75 27.9967C133.395 27.9967 131.479 25.7644 131.479 21.8559V13.0235H135.512ZM49.538 13.0235V18.5059H54.4975V13.0235H58.5304V27.7775H54.4975V21.8162H49.538V27.7775H45.5057V13.0235H49.538ZM74.3695 13.0235V16.3335H67.7559V18.7259H72.4739V21.8365H67.7559V24.5677H74.7124V27.7775H63.7239V13.0235H74.3693H74.3695ZM84.9682 13.0235C88.7988 13.0235 91.1377 14.2801 91.1377 17.8284C91.1377 20.141 90.1491 21.4774 88.1938 22.1346L91.359 27.7778H87.0851L84.2015 22.6542H83.0928V27.7775H79.1412V13.0235H84.9682ZM118.522 13.0235V18.3674L122.636 13.0235H127.313L122.293 18.8455L127.756 27.7775H123.2L119.672 21.8757L118.522 23.1915V27.7778H114.491V13.0232H118.522V13.0235ZM102.683 16.0339C100.566 16.0339 99.3766 17.6888 99.3766 20.3999C99.3766 23.1125 100.566 24.8666 102.683 24.8666C104.78 24.8666 105.969 23.1125 105.969 20.3999C105.969 17.6885 104.78 16.0339 102.683 16.0339ZM84.8264 16.2531H83.0928V19.6226H84.8264C86.4799 19.6226 87.2055 19.164 87.2055 17.928C87.2055 16.6925 86.4799 16.2531 84.8264 16.2531Z" fill="#430098"/>
</svg>
