<svg width="46" height="51" viewBox="0 0 46 51" fill="none" xmlns="http://www.w3.org/2000/svg">
<path d="M44.0865 24.625C44.0848 23.1904 43.608 21.7968 42.7305 20.6618C41.8531 19.5268 40.6244 18.7144 39.2365 18.3516L45.4615 0H14.6177L20.8615 18.4172C19.5143 18.8088 18.3302 19.6261 17.4863 20.7468C16.6424 21.8676 16.1842 23.2315 16.1802 24.6344C16.1802 26.8078 17.263 28.7359 18.9162 29.9234C18.2544 30.8602 17.4989 31.7272 16.6615 32.5109C15.1199 33.9776 13.3175 35.1429 11.3474 35.9469C9.60523 34.7734 8.85836 32.6984 9.53336 30.8531C16.613 28.6469 15.0505 18.2141 7.64586 18.1828C5.92606 18.1841 4.27706 18.8678 3.06098 20.0839C1.8449 21.3 1.16116 22.949 1.15992 24.6688C1.15992 26.4359 1.87398 28.0547 3.03961 29.2172C2.93336 29.4125 2.83492 29.625 2.72867 29.8359C1.76148 31.8375 0.661483 34.0922 0.239608 36.6234C-0.597892 41.6937 0.777108 45.7625 4.09742 48.0656C5.89229 49.3322 8.0366 50.0093 10.2334 50.0031C14.0334 50.0031 17.9005 48.0906 21.6349 46.2344C24.3037 44.9234 27.0537 43.5484 29.7552 42.8828C30.7568 42.6391 31.799 42.4938 32.8974 42.3281C35.1271 42.0109 37.4302 41.6781 39.4974 40.4734C40.6798 39.7978 41.6997 38.8713 42.4855 37.7591C43.2713 36.6469 43.8039 35.3761 44.0459 34.0359C44.39 31.9944 44.065 29.8964 43.1193 28.0547C43.7459 27.0531 44.088 25.8906 44.088 24.6281L44.0865 24.625ZM41.263 24.625C41.2618 25.5914 40.8773 26.5179 40.194 27.2013C39.5106 27.8846 38.5841 28.2691 37.6177 28.2703C34.1662 28.2625 32.6537 23.9094 35.3615 21.7594L35.3693 21.7453C35.4927 21.6562 35.624 21.5656 35.7443 21.4828C35.7443 21.4828 35.7693 21.4828 35.7693 21.4688C35.8255 21.4359 35.8818 21.3953 35.9396 21.3625C35.9568 21.3625 35.9646 21.3547 35.9787 21.3547C36.0365 21.3219 36.1099 21.2984 36.1834 21.2656C36.2568 21.2328 36.3287 21.2094 36.388 21.1766C36.4021 21.1766 36.4115 21.1688 36.4271 21.1688C36.4849 21.1516 36.5505 21.1203 36.6068 21.1125C36.6146 21.1125 36.649 21.0953 36.6646 21.0953C36.738 21.0781 36.7943 21.0625 36.8662 21.0531H36.874L37.0943 21.0047C37.1084 21.0047 37.1334 21.0047 37.1505 20.9875C37.2068 20.9875 37.2646 20.9703 37.3302 20.9703H37.3943C37.4677 20.9703 37.5396 20.9625 37.6302 20.9625H37.8177C37.8755 20.9625 37.924 20.9625 37.9802 20.9703H38.0052C38.1193 20.9875 38.2412 21.0031 38.3552 21.0375C39.1774 21.2119 39.9147 21.6634 40.4438 22.3165C40.9728 22.9696 41.2615 23.7845 41.2615 24.625H41.263ZM18.6552 2.89844H41.4255L36.2005 18.3109C35.9802 18.3531 35.7693 18.425 35.549 18.4984L30.049 7.28438L24.5302 18.4266C24.3063 18.3599 24.0782 18.3082 23.8474 18.2719L18.6552 2.89844ZM29.0068 23.3641C28.7397 22.0279 28.0552 20.8111 27.0521 19.8891L30.0474 13.8437L33.074 20.0188C32.1484 20.9274 31.5165 22.0927 31.2599 23.3641H29.0068ZM21.7552 21.0766C21.8223 21.0582 21.8908 21.0451 21.9599 21.0375H21.999C22.0568 21.0203 22.113 21.0203 22.1693 21.0047H22.2271C22.2834 21.0047 22.3334 20.9875 22.3896 20.9875H22.9505C23.0084 20.9875 23.0568 21.0047 23.099 21.0047C23.1302 21.0047 23.138 21.0047 23.1724 21.0219C23.2287 21.0391 23.2709 21.0391 23.3271 21.0469C23.3443 21.0469 23.3599 21.0469 23.3912 21.0609L23.5865 21.1031H23.6037C23.6599 21.1203 23.7271 21.1359 23.7834 21.1672C23.7912 21.1672 23.8084 21.175 23.8396 21.175C23.8818 21.1922 23.938 21.2078 23.988 21.2313C23.9943 21.2313 24.0115 21.2484 24.0271 21.2484C24.0834 21.2812 24.1412 21.2984 24.1974 21.3219H24.2146C24.2825 21.3468 24.3458 21.3827 24.4021 21.4281H24.4193C24.4755 21.4531 24.5318 21.4922 24.5896 21.5266C24.6037 21.5266 24.6037 21.5438 24.6209 21.5438C24.6787 21.5688 24.7193 21.6172 24.7755 21.6422L24.7927 21.6594C24.963 21.7891 25.1255 21.9344 25.2912 22.0828L25.2974 22.0906C25.949 22.7734 26.3084 23.6766 26.299 24.6109C26.1443 29.3156 19.1615 29.3156 19.0068 24.6109C18.999 22.9438 20.138 21.4859 21.7568 21.0797L21.7552 21.0766ZM7.50523 20.9703C8.47327 20.9703 9.40166 21.3549 10.0862 22.0394C10.7707 22.7239 11.1552 23.6523 11.1552 24.6203C11.1552 25.5884 10.7707 26.5167 10.0862 27.2013C9.40166 27.8858 8.47327 28.2703 7.50523 28.2703C5.49742 28.2703 3.85992 26.6344 3.85992 24.625C3.85992 22.6156 5.49742 20.9703 7.50523 20.9703ZM41.1802 33.5297C41.0137 34.4549 40.6464 35.3323 40.104 36.1C39.5616 36.8678 38.8575 37.5073 38.0412 37.9734C36.4615 38.8844 34.5162 39.1781 32.4834 39.4609C31.3343 39.6078 30.1934 39.8117 29.0646 40.0719C26.0537 40.8141 23.1568 42.2531 20.3474 43.6453C16.7599 45.4281 13.374 47.1031 10.2334 47.1031C8.62225 47.1133 7.04943 46.6122 5.74117 45.6719C2.55836 43.4734 2.71461 39.3484 3.09586 37.0859C3.43805 34.9688 4.4068 32.9922 5.33336 31.0969C5.40054 30.9828 5.43961 30.8766 5.49742 30.7641C5.81461 30.8766 6.14742 30.9656 6.49742 31.025C5.94273 34.0922 7.50523 37.2672 10.549 38.8297L11.0943 39.1125L11.688 38.9016C14.2193 37.9969 16.5709 36.5406 18.638 34.5891C19.784 33.5226 20.7952 32.3199 21.649 31.0078C23.2368 31.2514 24.8584 30.8979 26.2009 30.0158C27.5433 29.1336 28.5112 27.7853 28.9177 26.2313H31.3505C31.7103 27.6198 32.5209 28.8495 33.6553 29.7273C34.7896 30.6051 36.1834 31.0814 37.6177 31.0813C38.8224 31.0813 39.9365 30.7484 40.888 30.1859C41.263 31.2688 41.3834 32.4 41.1802 33.5312V33.5297Z" fill="#545454"/>
</svg>
