<svg width="82" height="50" viewBox="0 0 82 50" fill="none" xmlns="http://www.w3.org/2000/svg">
<path d="M40.2673 49.8558C39.9914 49.8558 39.7337 49.7822 39.4944 49.6534L37.0468 48.1996C36.6786 47.997 36.8627 47.9234 36.9732 47.8867C37.47 47.7211 37.5621 47.6841 38.0774 47.3898C38.1326 47.3529 38.2063 47.3714 38.2614 47.4082L40.1387 48.5308C40.2122 48.5676 40.3043 48.5676 40.3594 48.5308L47.7025 44.2795C47.7761 44.2427 47.813 44.169 47.813 44.0771V35.593C47.813 35.5008 47.7761 35.4274 47.7025 35.3905L40.3594 31.1577C40.2858 31.1207 40.1938 31.1207 40.1387 31.1577L32.7955 35.3905C32.722 35.4273 32.685 35.5193 32.685 35.5929V44.0769C32.685 44.1507 32.722 44.2426 32.7955 44.2795L34.8016 45.4389C35.8874 45.991 36.5683 45.3469 36.5683 44.7027V36.329C36.5683 36.2187 36.6603 36.1082 36.7891 36.1082H37.7277C37.8382 36.1082 37.9485 36.2002 37.9485 36.329V44.7027C37.9485 46.1566 37.1571 47.0032 35.7769 47.0032C35.3536 47.0032 35.0224 47.0032 34.0837 46.543L32.1514 45.4389C31.6729 45.1629 31.3785 44.6475 31.3785 44.0954V35.6113C31.3785 35.0593 31.6729 34.5438 32.1514 34.2679L39.4944 30.0166C39.9546 29.759 40.5804 29.759 41.0404 30.0166L48.3834 34.2679C48.8619 34.5438 49.1565 35.0593 49.1565 35.6113V44.0954C49.1565 44.6475 48.8619 45.1629 48.3834 45.4389L41.0404 49.6902C40.8011 49.8007 40.5251 49.8558 40.2675 49.8558H40.2673ZM42.531 44.0219C39.3105 44.0219 38.6479 42.5496 38.6479 41.2981C38.6479 41.1876 38.7399 41.0773 38.8688 41.0773H39.8258C39.9361 41.0773 40.0282 41.1508 40.0282 41.2613C40.1755 42.2367 40.5987 42.7152 42.5495 42.7152C44.0954 42.7152 44.7581 42.3655 44.7581 41.5373C44.7581 41.0588 44.5739 40.7093 42.163 40.4699C40.157 40.2674 38.9056 39.8258 38.9056 38.2247C38.9056 36.734 40.1571 35.8505 42.2551 35.8505C44.6106 35.8505 45.7702 36.6604 45.9175 38.4269C45.9175 38.4824 45.899 38.5375 45.8622 38.5927C45.8253 38.6295 45.7702 38.6663 45.7149 38.6663H44.7579C44.6659 38.6663 44.5739 38.5927 44.5556 38.5007C44.3347 37.4886 43.7641 37.1572 42.2551 37.1572C40.5619 37.1572 40.3594 37.7462 40.3594 38.1878C40.3594 38.7215 40.5987 38.8871 42.8807 39.1816C45.1444 39.4762 46.2119 39.8994 46.2119 41.482C46.1934 43.1016 44.8684 44.0219 42.531 44.0219Z" fill="#539E43"/>
<path d="M17.4836 16.6739C17.4836 16.3427 17.2995 16.0297 17.0051 15.8641L9.20191 11.3736C9.07293 11.2999 8.9258 11.2631 8.77866 11.2446H8.70494C8.5578 11.2446 8.41051 11.2999 8.28169 11.3736L0.478503 15.8641C0.183917 16.0297 0 16.3426 0 16.6739L0.0184713 28.7467C0.0184713 28.9123 0.11051 29.0779 0.257643 29.1516C0.404936 29.2437 0.588853 29.2437 0.717834 29.1516L5.35557 26.5015C5.65 26.3359 5.83408 26.023 5.83408 25.6918V20.0418C5.83408 19.7106 6.01799 19.3977 6.31258 19.232L8.28169 18.091C8.42898 17.9989 8.59459 17.962 8.76019 17.962C8.9258 17.962 9.0914 17.9989 9.22038 18.091L11.1895 19.232C11.4841 19.3977 11.668 19.7104 11.668 20.0418V25.6918C11.668 26.023 11.8521 26.3359 12.1465 26.5015L16.7842 29.1516C16.8559 29.1967 16.9388 29.2207 17.0235 29.2207C17.1082 29.2207 17.1911 29.1967 17.2627 29.1516C17.41 29.0779 17.5021 28.9123 17.5021 28.7467L17.4836 16.6739ZM54.9905 0.0552946C54.8433 -0.0184315 54.6592 -0.0184315 54.5303 0.0552946C54.3831 0.147333 54.2911 0.294467 54.2911 0.460072V12.4227C54.2911 12.533 54.236 12.6434 54.1255 12.7171C54.0151 12.7722 53.9046 12.7722 53.7943 12.7171L51.8435 11.5945C51.7005 11.513 51.5387 11.4702 51.3741 11.4702C51.2095 11.4702 51.0478 11.513 50.9048 11.5945L43.1016 16.1034C42.8072 16.269 42.6231 16.5819 42.6231 16.9131V25.9125C42.6231 26.2437 42.8072 26.5567 43.1016 26.7223L50.9048 31.2313C51.0478 31.3127 51.2095 31.3555 51.3741 31.3555C51.5387 31.3555 51.7005 31.3127 51.8435 31.2313L59.6467 26.7223C59.9411 26.5567 60.1252 26.2438 60.1252 25.9125V3.47838C60.1252 3.1287 59.9411 2.81596 59.6467 2.6502L54.9906 0.0552946H54.9905ZM54.2728 22.9496C54.2728 23.0416 54.236 23.1152 54.1623 23.1519L51.4938 24.6978C51.4565 24.716 51.4156 24.7254 51.3741 24.7254C51.3327 24.7254 51.2917 24.716 51.2545 24.6978L48.586 23.1519C48.5123 23.1152 48.4755 23.0231 48.4755 22.9496V19.8577C48.4755 19.7656 48.5123 19.6921 48.586 19.6553L51.2545 18.1093C51.2917 18.0911 51.3327 18.0816 51.3741 18.0816C51.4156 18.0816 51.4565 18.0911 51.4938 18.1093L54.1623 19.6553C54.236 19.6919 54.2728 19.7841 54.2728 19.8577V22.9496ZM80.9581 19.7841C81.2527 19.6185 81.4183 19.3056 81.4183 18.9742V16.7843C81.4183 16.4531 81.2342 16.1402 80.9581 15.9746L73.2102 11.4841C73.0672 11.4027 72.9054 11.3599 72.7408 11.3599C72.5763 11.3599 72.4145 11.4027 72.2715 11.4841L64.4683 15.9929C64.1737 16.1585 63.9898 16.4714 63.9898 16.8026V25.8021C63.9898 26.1333 64.1739 26.4462 64.4683 26.6118L72.2162 31.0287C72.5108 31.1943 72.8605 31.1943 73.1366 31.0287L77.8295 28.4156C77.9768 28.3419 78.0688 28.1763 78.0688 28.0107C78.0688 27.8451 77.9768 27.6795 77.8295 27.6058L69.9895 23.0969C69.8422 23.0048 69.7502 22.8577 69.7502 22.6921V19.8763C69.7502 19.7107 69.8422 19.5451 69.9895 19.4714L72.4371 18.0727C72.5088 18.0276 72.5917 18.0036 72.6764 18.0036C72.761 18.0036 72.844 18.0276 72.9156 18.0727L75.3634 19.4714C75.5107 19.5634 75.6026 19.7106 75.6026 19.8763V22.0848C75.6026 22.2504 75.6946 22.416 75.8419 22.4895C75.9135 22.5346 75.9965 22.5586 76.0811 22.5586C76.1658 22.5586 76.2487 22.5346 76.3204 22.4895L80.9581 19.7841Z" fill="#333333"/>
<path d="M72.6212 19.3607C72.6485 19.3427 72.6805 19.3331 72.7132 19.3331C72.7459 19.3331 72.7779 19.3427 72.8052 19.3607L74.296 20.2257C74.3511 20.2627 74.3879 20.3178 74.3879 20.3913V22.1214C74.3879 22.195 74.3513 22.2502 74.296 22.287L72.8052 23.152C72.7779 23.17 72.7459 23.1796 72.7132 23.1796C72.6805 23.1796 72.6485 23.17 72.6212 23.152L71.1306 22.287C71.0753 22.2502 71.0385 22.195 71.0385 22.1214V20.3915C71.0385 20.3177 71.0751 20.2625 71.1306 20.2259L72.6212 19.3607Z" fill="#539E43"/>
<path d="M38.2983 15.9928L30.5136 11.5209C30.4371 11.4822 30.3569 11.4514 30.2743 11.4288L21.5508 26.3728C21.6231 26.461 21.7104 26.5358 21.8086 26.5936L29.5934 31.0658C29.8142 31.1946 30.0719 31.2314 30.311 31.1577L38.5008 16.1771C38.4456 16.1035 38.3719 16.0481 38.2983 15.993V15.9928Z" fill="url(#paint0_linear_4_52)"/>
<path fill-rule="evenodd" clip-rule="evenodd" d="M29.3357 9.88281L29.2253 9.93807H29.3725L29.3357 9.88281Z" fill="url(#paint1_linear_4_52)"/>
<path fill-rule="evenodd" clip-rule="evenodd" d="M38.3167 26.575C38.5376 26.4461 38.7032 26.2253 38.7769 25.9861L30.2373 11.4103C30.0164 11.3735 29.7771 11.3918 29.5748 11.5207L21.8452 15.9745L30.182 31.1759C30.3032 31.1561 30.421 31.1189 30.5317 31.0656L38.3166 26.5751L38.3167 26.575Z" fill="url(#paint2_linear_4_52)"/>
<path fill-rule="evenodd" clip-rule="evenodd" d="M39.0346 26.4279L38.9793 26.3358V26.4646L39.0344 26.4279H39.0346Z" fill="url(#paint3_linear_4_52)"/>
<path fill-rule="evenodd" clip-rule="evenodd" d="M38.3168 26.575L30.5504 31.0471C30.4407 31.103 30.3226 31.1403 30.2007 31.1575L30.348 31.4336L38.9609 26.4463V26.3358L38.74 25.9677C38.7032 26.2253 38.5376 26.4462 38.3168 26.575Z" fill="url(#paint4_linear_4_52)"/>
<path fill-rule="evenodd" clip-rule="evenodd" d="M38.3168 26.575L30.5504 31.0471C30.4407 31.103 30.3226 31.1403 30.2007 31.1575L30.348 31.4336L38.9609 26.4463V26.3358L38.74 25.9677C38.7032 26.2253 38.5376 26.4462 38.3168 26.575Z" fill="url(#paint5_linear_4_52)"/>
<defs>
<linearGradient id="paint0_linear_4_52" x1="28.8863" y1="22.3338" x2="50.1553" y2="10.7782" gradientUnits="userSpaceOnUse">
<stop offset="0.1376" stop-color="#41873F"/>
<stop offset="0.4032" stop-color="#54A044"/>
<stop offset="0.7136" stop-color="#66B848"/>
<stop offset="0.9081" stop-color="#6CC04A"/>
</linearGradient>
<linearGradient id="paint1_linear_4_52" x1="22.7312" y1="9.89023" x2="37.0645" y2="9.89023" gradientUnits="userSpaceOnUse">
<stop offset="0.09192" stop-color="#6CC04A"/>
<stop offset="0.2864" stop-color="#66B848"/>
<stop offset="0.5968" stop-color="#54A044"/>
<stop offset="0.8624" stop-color="#41873F"/>
</linearGradient>
<linearGradient id="paint2_linear_4_52" x1="21.1021" y1="21.2841" x2="39.0307" y2="21.2841" gradientUnits="userSpaceOnUse">
<stop offset="0.09192" stop-color="#6CC04A"/>
<stop offset="0.2864" stop-color="#66B848"/>
<stop offset="0.5968" stop-color="#54A044"/>
<stop offset="0.8624" stop-color="#41873F"/>
</linearGradient>
<linearGradient id="paint3_linear_4_52" x1="33.612" y1="26.3825" x2="38.9947" y2="26.3825" gradientUnits="userSpaceOnUse">
<stop offset="0.09192" stop-color="#6CC04A"/>
<stop offset="0.2864" stop-color="#66B848"/>
<stop offset="0.5968" stop-color="#54A044"/>
<stop offset="0.8624" stop-color="#41873F"/>
</linearGradient>
<linearGradient id="paint4_linear_4_52" x1="21.1023" y1="28.7156" x2="39.0307" y2="28.7156" gradientUnits="userSpaceOnUse">
<stop offset="0.09192" stop-color="#6CC04A"/>
<stop offset="0.2864" stop-color="#66B848"/>
<stop offset="0.5968" stop-color="#54A044"/>
<stop offset="0.8624" stop-color="#41873F"/>
</linearGradient>
<linearGradient id="paint5_linear_4_52" x1="41.6426" y1="14.4308" x2="37.1007" y2="38.2306" gradientUnits="userSpaceOnUse">
<stop stop-color="#41873F"/>
<stop offset="0.3288" stop-color="#418B3D"/>
<stop offset="0.6352" stop-color="#419637"/>
<stop offset="0.9319" stop-color="#3FA92D"/>
<stop offset="1" stop-color="#3FAE2A"/>
</linearGradient>
</defs>
</svg>
