<svg width="50" height="34" viewBox="0 0 50 34" fill="none" xmlns="http://www.w3.org/2000/svg">
<path d="M34.1771 3.43736C33.9375 3.43736 33.775 3.46652 33.6063 3.50611V3.53319H33.6354C33.7479 3.74986 33.9396 3.90819 34.0812 4.10194C34.1937 4.32486 34.2896 4.54777 34.4021 4.76861L34.4312 4.73736C34.6271 4.59986 34.7229 4.37902 34.7229 4.04361C34.6396 3.94569 34.6271 3.84777 34.5562 3.75194C34.4729 3.61236 34.2937 3.54361 34.1812 3.43319L34.1771 3.43736ZM12.0208 30.9249H10.0896C10.0353 27.8557 9.84759 24.7903 9.52708 21.7374H9.51042L6.57292 30.9249H5.10417L2.1875 21.7374H2.16667C1.93853 24.7951 1.80305 27.859 1.76042 30.9249H0C0.114583 26.829 0.4 22.9874 0.854167 19.404H3.25L6.03125 27.8707H6.04792L8.85417 19.404H11.1354C11.6396 23.6019 11.9354 27.4457 12.0271 30.9249H12.0208ZM20.3896 22.4249C19.6021 26.6853 18.5646 29.7853 17.2812 31.7165C16.2771 33.2082 15.1771 33.9519 13.9833 33.9519C13.6646 33.9519 13.275 33.8561 12.8042 33.6644V32.6353C13.0333 32.6707 13.3042 32.6894 13.6083 32.6894C14.1667 32.6894 14.6146 32.5332 14.9562 32.2269C15.3667 31.8519 15.5708 31.4311 15.5708 30.9665C15.5708 30.6436 15.4104 29.9874 15.0917 28.9999L12.9792 22.4249H14.875L16.3896 27.3415C16.7312 28.4582 16.875 29.2374 16.8167 29.6811C17.65 27.4644 18.2292 25.0415 18.5562 22.4249H20.3896ZM46.0667 30.9249H40.5875V19.404H42.4312V29.5082H46.0667V30.9249ZM39.15 31.2061L37.0333 30.1644C37.2208 30.0061 37.4021 29.8353 37.5646 29.6436C38.4667 28.5894 38.9146 27.0228 38.9146 24.9499C38.9146 21.1374 37.4188 19.229 34.425 19.229C32.9583 19.229 31.8125 19.7124 30.9875 20.6811C30.0917 21.7394 29.6417 23.2978 29.6417 25.3582C29.6417 27.3832 30.0375 28.8707 30.8375 29.8165C31.5667 30.6707 32.6646 31.0978 34.1354 31.0978C34.6854 31.0978 35.1896 31.029 35.6458 30.8936L38.4062 32.5019L39.1562 31.2061H39.15ZM32.2917 28.6186C31.8229 27.8686 31.5896 26.6603 31.5896 25.0019C31.5896 22.0999 32.4729 20.6478 34.2354 20.6478C35.1583 20.6478 35.8396 20.9957 36.2708 21.6894C36.7375 22.4436 36.9708 23.6394 36.9708 25.279C36.9708 28.204 36.0875 29.6707 34.325 29.6707C33.3979 29.6707 32.7208 29.3228 32.2875 28.629L32.2917 28.6186ZM28.8375 27.7332C28.8375 28.7124 28.4792 29.5165 27.7625 30.1415C27.0458 30.7665 26.0896 31.079 24.8792 31.079C23.7479 31.079 22.6625 30.7207 21.6021 30.0061L22.0958 29.0144C23.0083 29.4728 23.8312 29.6978 24.575 29.6978C25.2667 29.6978 25.8104 29.5457 26.2062 29.2394C26.4041 29.0903 26.5638 28.8965 26.6725 28.6738C26.7811 28.4511 26.8355 28.2059 26.8312 27.9582C26.8312 27.2707 26.3521 26.6874 25.4812 26.1978C24.6729 25.754 23.0583 24.829 23.0583 24.829C22.1792 24.1894 21.7417 23.504 21.7417 22.3769C21.7417 21.4394 22.0688 20.6894 22.7208 20.1165C23.3771 19.5374 24.2208 19.2519 25.2625 19.2519C26.3292 19.2519 27.3042 19.5353 28.1792 20.1061L27.7354 21.0978C27.0363 20.7906 26.2823 20.6277 25.5187 20.6186C24.9292 20.6186 24.4729 20.7603 24.1562 21.0478C23.9956 21.1809 23.866 21.3476 23.7767 21.5363C23.6875 21.7249 23.6407 21.9308 23.6396 22.1394C23.6396 22.8228 24.1271 23.4103 25.0271 23.9103C25.8458 24.3582 27.5 25.3061 27.5 25.3061C28.4021 25.9415 28.85 26.6186 28.85 27.7394L28.8375 27.7332ZM48.3833 15.5415C47.2687 15.5124 46.4042 15.6249 45.6812 15.9332C45.4729 16.0165 45.1396 16.0165 45.1104 16.2811C45.225 16.3915 45.2417 16.5728 45.3396 16.7269C45.5062 17.0061 45.7937 17.379 46.0604 17.5749C46.3521 17.804 46.6437 18.0249 46.95 18.2207C47.4917 18.554 48.1063 18.7519 48.6375 19.0874C48.9396 19.2832 49.2479 19.5311 49.5542 19.7394C49.7062 19.8436 49.8042 20.0311 50 20.0978V20.0561C49.9042 19.9311 49.875 19.7499 49.7812 19.6103C49.6417 19.4707 49.5021 19.3457 49.3646 19.2082C48.9556 18.6692 48.4674 18.1951 47.9167 17.8019C47.4708 17.4978 46.4958 17.0728 46.3125 16.5624L46.2854 16.5332C46.5896 16.5061 46.9521 16.3957 47.2437 16.3124C47.7167 16.1874 48.15 16.2144 48.6396 16.0915C48.8604 16.0353 49.0833 15.9665 49.3062 15.8957V15.7707C49.0562 15.5207 48.8687 15.1811 48.6104 14.9478C47.8894 14.3175 47.1204 13.7442 46.3104 13.2332C45.8729 12.954 45.3187 12.7749 44.8583 12.5374C44.6917 12.454 44.4125 12.4124 44.3167 12.2728C44.0667 11.9686 43.9208 11.5644 43.7437 11.2019C43.3347 10.4084 42.9546 9.6002 42.6042 8.77902C42.3542 8.23319 42.2021 7.68944 41.8958 7.18944C40.4583 4.82069 38.9021 3.38527 36.5083 1.98111C35.9937 1.68944 35.3771 1.56444 34.725 1.41027C34.3771 1.39361 34.0292 1.36861 33.6833 1.35402C33.4542 1.25611 33.2333 0.991524 33.0375 0.864441C32.2458 0.364441 30.1958 -0.718892 29.6125 0.714441C29.2375 1.61861 30.1687 2.51027 30.4917 2.96861C30.7312 3.28736 31.0333 3.65194 31.2 4.01027C31.2979 4.25194 31.325 4.49986 31.4229 4.75194C31.6437 5.36444 31.8542 6.04777 32.1458 6.62069C32.2979 6.91236 32.4646 7.21861 32.6604 7.48111C32.7729 7.63319 32.9646 7.70402 33.0083 7.95402C32.8125 8.23736 32.8 8.64986 32.6875 8.99569C32.1875 10.5728 32.3833 12.5228 33.0917 13.6832C33.3146 14.029 33.8458 14.7957 34.5562 14.5019C35.1812 14.2519 35.0437 13.4603 35.2229 12.7624C35.2646 12.5957 35.2375 12.4853 35.3229 12.3728V12.404C35.5187 12.7957 35.7146 13.1686 35.8937 13.5603C36.3229 14.2436 37.0729 14.9519 37.7 15.4249C38.0333 15.6749 38.2979 16.1082 38.7146 16.2624V16.2207H38.6833C38.5938 16.0999 38.475 16.0415 38.3625 15.9436C38.0983 15.685 37.8546 15.4064 37.6333 15.1103C37.0463 14.3082 36.5259 13.4596 36.0771 12.5728C35.8479 12.1353 35.6562 11.6644 35.4729 11.2332C35.3896 11.0665 35.3896 10.8165 35.25 10.7332C35.0417 11.0374 34.7354 11.3019 34.5833 11.6769C34.3187 12.2769 34.2917 13.0144 34.1917 13.7811C34.1354 13.7957 34.1625 13.7811 34.1354 13.8103C33.6896 13.7019 33.5375 13.2394 33.3708 12.8519C32.9542 11.8624 32.8854 10.2728 33.2458 9.13319C33.3438 8.84152 33.7604 7.92069 33.5938 7.64152C33.5062 7.37694 33.2313 7.22486 33.0792 7.01027C32.8835 6.73099 32.716 6.433 32.5792 6.12069C32.2458 5.34152 32.0792 4.47902 31.7167 3.69986C31.55 3.33944 31.2583 2.96236 31.0208 2.63111C30.7563 2.25611 30.4646 1.99152 30.2542 1.54777C30.1854 1.39569 30.0875 1.14361 30.1979 0.976942C30.2271 0.864442 30.2854 0.820691 30.3937 0.789441C30.5771 0.639441 31.0917 0.835274 31.2729 0.918608C31.7875 1.12694 32.2208 1.32277 32.6521 1.61444C32.8479 1.75194 33.0583 2.01653 33.3083 2.08528H33.6C34.0458 2.18319 34.5479 2.11444 34.9646 2.23736C35.7042 2.47486 36.3708 2.82069 36.9688 3.19569C38.8111 4.3726 40.3096 6.01559 41.3125 7.95819C41.4792 8.27903 41.5521 8.57278 41.7042 8.90611C41.9958 9.59361 42.3562 10.2874 42.6521 10.9519C42.9437 11.6082 43.225 12.2769 43.6437 12.8207C43.8521 13.1124 44.6896 13.2644 45.0646 13.4165C45.3417 13.5415 45.7729 13.6561 46.0229 13.8082C46.5021 14.0999 46.9687 14.4332 47.4187 14.754C47.6479 14.9124 48.3417 15.2603 48.3833 15.5415Z" fill="#545454"/>
</svg>
