<svg width="50" height="48" viewBox="0 0 50 48" fill="none" xmlns="http://www.w3.org/2000/svg">
<path d="M34.6458 33.4646C36.4896 33.2729 37.8896 31.6667 37.8271 29.7396C37.7959 28.8133 37.4077 27.935 36.7437 27.2885C36.0797 26.642 35.1913 26.2773 34.2646 26.2708H34.1354C32.1625 26.3333 30.6354 28.0042 30.6979 29.9958C30.7646 30.9604 31.1458 31.7937 31.7187 32.3708C29.5542 36.6771 26.2458 39.8229 21.2812 42.4562C17.9104 44.2562 14.4104 44.8979 10.9125 44.4479C8.04791 44.0625 5.82083 42.7771 4.42083 40.6583C2.38541 37.5125 2.19583 34.1063 3.9125 30.7021C5.12083 28.2625 7.03125 26.4625 8.23958 25.5646C7.91185 24.486 7.63584 23.3924 7.4125 22.2875C-1.81458 29.0333 -0.858335 38.1542 1.9375 42.4583C4.0375 45.6708 8.3 47.6625 13.0104 47.6625C14.2964 47.6712 15.5784 47.52 16.8271 47.2125C24.9729 45.6083 31.1437 40.725 34.6437 33.4667L34.6458 33.4646ZM45.8437 25.5C41.0083 19.7833 33.8812 16.6354 25.7375 16.6354H24.7187C24.4286 16.0571 23.9836 15.5707 23.4333 15.2305C22.883 14.8902 22.2491 14.7095 21.6021 14.7083H21.4729C19.5021 14.7729 17.9729 16.4437 18.0375 18.4354C18.1 20.3625 19.6917 21.9021 21.6 21.9021H21.7292C22.4012 21.8673 23.0499 21.6441 23.601 21.258C24.1522 20.8719 24.5836 20.3385 24.8458 19.7188H25.9917C30.8271 19.7188 35.4083 21.1312 39.5437 23.8937C42.725 26.0146 45.0167 28.775 46.2875 32.1167C47.3708 34.8125 47.3083 37.4458 46.1625 39.6958C44.3792 43.1 41.3896 44.9625 37.4437 44.9625C34.9 44.9625 32.4812 44.1917 31.2083 43.6125C30.2924 44.4295 29.3371 45.2013 28.3458 45.925C31.0812 47.2104 33.8812 47.9167 36.5542 47.9167C42.6625 47.9167 47.1792 44.5125 48.8979 41.1083C50.7417 37.3833 50.6146 30.9604 45.8437 25.5ZM13.5208 34.5562C13.5833 36.4833 15.175 38.025 17.0833 38.025H17.2104C19.1833 37.9625 20.7104 36.2917 20.6479 34.3C20.6167 33.3737 20.2285 32.4954 19.5645 31.8489C18.9005 31.2024 18.0122 30.8377 17.0854 30.8312H16.9562C16.8049 30.8212 16.6532 30.8425 16.5104 30.8937C13.9021 26.5271 12.8208 21.775 13.2021 16.6354C13.4562 12.7812 14.7292 9.44167 16.9562 6.67917C18.8021 4.30417 22.3646 3.14792 24.7833 3.08333C31.5271 2.95417 34.3896 11.4333 34.5812 14.8375C35.4083 15.0292 36.8083 15.4792 37.7625 15.8C36.9979 5.39583 30.6375 0 24.5271 0C18.8021 0 13.5208 4.175 11.4208 10.3417C8.49375 18.5625 10.4021 26.4625 13.9667 32.6938C13.6479 33.1437 13.4562 33.85 13.5208 34.5562Z" fill="#545454"/>
</svg>
