<svg width="159" height="36" viewBox="0 0 159 36" fill="none" xmlns="http://www.w3.org/2000/svg">
<path d="M79.3199 9.00008C73.1111 9.00008 68.6346 13.0501 68.6346 19.1249C68.6346 25.2 73.6735 29.2499 79.8826 29.2499C83.6337 29.2499 86.9404 27.7649 88.9878 25.2618L84.6852 22.7757C83.5492 24.0187 81.8226 24.7443 79.8823 24.7443C77.1886 24.7443 74.8996 23.3382 74.0502 21.0882H89.8086C89.9325 20.458 90.0055 19.8054 90.0055 19.1193C90.0055 13.0501 85.529 8.99977 79.3199 8.99977V9.00008ZM74.0002 17.1562C74.703 14.9118 76.6265 13.4998 79.3146 13.4998C82.0086 13.4998 83.9321 14.9118 84.6293 17.1562H74.0002ZM139.879 8.99977C133.67 8.99977 129.193 13.0501 129.193 19.1249C129.193 25.2 134.232 29.2499 140.441 29.2499C144.193 29.2499 147.499 27.7649 149.547 25.2618L145.244 22.7757C144.108 24.0187 142.382 24.7443 140.441 24.7443C137.747 24.7443 135.458 23.3382 134.609 21.0882H150.367C150.491 20.458 150.564 19.8054 150.564 19.1193C150.564 13.0501 146.087 8.99977 139.878 8.99977H139.879ZM134.564 17.1562C135.267 14.9118 137.191 13.4998 139.879 13.4998C142.573 13.4998 144.496 14.9118 145.193 17.1562H134.564ZM112.614 19.1249C112.614 22.4999 114.819 24.7499 118.238 24.7499C120.555 24.7499 122.293 23.6982 123.187 21.9824L127.506 24.4744C125.718 27.4556 122.366 29.2499 118.238 29.2499C112.024 29.2499 107.553 25.1997 107.553 19.1249C107.553 13.0501 112.029 9.00008 118.238 9.00008C122.366 9.00008 125.712 10.7944 127.506 13.7756L123.187 16.2676C122.293 14.5518 120.555 13.5001 118.238 13.5001C114.824 13.5001 112.614 15.7498 112.614 19.1252V19.1249ZM159 2.81252V28.6874H153.938V2.81252H159ZM20.7806 0L41.5608 36H0L20.7806 0ZM72.7344 2.81252L57.1506 29.8124L41.5664 2.81252H47.41L57.1506 19.6877L66.8912 2.81252H72.7344ZM105.865 9.56258V15.0131C105.303 14.85 104.707 14.7376 104.065 14.7376C100.798 14.7376 98.4415 16.9876 98.4415 20.3626V28.6874H93.3799V9.56258H98.4415V14.7373C98.4415 11.8797 101.765 9.56258 105.865 9.56258Z" fill="black"/>
</svg>
